<svg id="visual" viewBox="0 0 900 600" width="900" height="600" xmlns="http://www.w3.org/2000/svg" xmlns:xlink="http://www.w3.org/1999/xlink" version="1.1"><rect width="900" height="600" fill="#ADF"></rect><g><g transform="translate(41 437)"><path d="M88.7 -86.2C116.5 -60.9 141.6 -30.4 139.8 -1.8C138 26.9 109.4 53.8 81.6 82.6C53.8 111.4 26.9 142.1 0.4 141.7C-26.1 141.3 -52.2 109.8 -81.3 81C-110.4 52.2 -142.6 26.1 -149.6 -7.1C-156.7 -40.2 -138.7 -80.4 -109.5 -105.8C-80.4 -131.1 -40.2 -141.5 -4.9 -136.6C30.4 -131.8 60.9 -111.6 88.7 -86.2Z" stroke="#F5F" fill="none" stroke-width="3"></path></g><g transform="translate(199 91)"><path d="M56.3 -62.1C72.6 -40 85.2 -20 90 4.8C94.8 29.5 91.7 59.1 75.4 78.9C59.1 98.7 29.5 108.8 0.3 108.5C-28.9 108.3 -57.9 97.5 -79.3 77.7C-100.7 57.9 -114.5 28.9 -110.5 4C-106.5 -20.9 -84.6 -41.8 -63.2 -64C-41.8 -86.1 -20.9 -109.6 -0.5 -109.1C20 -108.7 40 -84.3 56.3 -62.1Z" stroke="#F5F" fill="none" stroke-width="3"></path></g><g transform="translate(613 126)"><path d="M70.6 -68.8C89.3 -51.9 100.7 -25.9 101 0.3C101.3 26.5 90.4 53.1 71.7 77C53.1 101 26.5 122.5 -0.7 123.2C-28 124 -55.9 103.9 -77.6 79.9C-99.2 55.9 -114.4 28 -109.4 5.1C-104.3 -17.8 -78.9 -35.7 -57.3 -52.6C-35.7 -69.5 -17.8 -85.5 4.1 -89.5C25.9 -93.6 51.9 -85.7 70.6 -68.8Z" stroke="#F5F" fill="none" stroke-width="3"></path></g><g transform="translate(412 454)"><path d="M89.7 -97.5C106.5 -72.9 103.7 -36.4 95.4 -8.3C87.1 19.8 73.3 39.7 56.5 57.4C39.7 75.2 19.8 90.9 0.5 90.4C-18.8 89.8 -37.6 73.1 -63 55.3C-88.5 37.6 -120.7 18.8 -126.8 -6.1C-132.9 -31.1 -113.1 -62.1 -87.6 -86.7C-62.1 -111.4 -31.1 -129.6 2.7 -132.3C36.4 -135 72.9 -122.2 89.7 -97.5Z" stroke="#F5F" fill="none" stroke-width="3"></path></g><g transform="translate(808 523)"><path d="M96 -100.5C118.2 -73.9 125.6 -36.9 120.7 -4.9C115.8 27.2 98.7 54.4 76.5 70.8C54.4 87.3 27.2 93 -5.2 98.2C-37.6 103.4 -75.1 108 -91 91.6C-106.9 75.1 -101.1 37.6 -92.1 8.9C-83.2 -19.7 -71.2 -39.4 -55.3 -66C-39.4 -92.7 -19.7 -126.2 8.6 -134.8C36.9 -143.5 73.9 -127.1 96 -100.5Z" stroke="#F5F" fill="none" stroke-width="3"></path></g></g></svg>